Coordinates
version=1
nRows=18
nColumns=22
inDegrees=yes

Units are S.I. units (second, meters, Newtons, ...)
If the header above contains a line with 'inDegrees', this indicates whether rotational values are in degrees (yes) or radians (no).

endheader
time	pelvis_tilt	pelvis_list	pelvis_rotation	pelvis_tx	pelvis_ty	pelvis_tz	hip_flexion_r	hip_adduction_r	hip_rotation_r	knee_angle_r	ankle_angle_r	subtalar_angle_r	hip_flexion_l	hip_adduction_l	hip_rotation_l	knee_angle_l	ankle_angle_l	subtalar_angle_l	lumbar_extension	lumbar_bending	lumbar_rotation
      0.01000000	      1.51976834	      3.81539567	    177.98880344	      0.23412042	      1.02011595	      0.96823293	     -0.27343260	      3.91238911	     -0.26069697	     -8.97652394	      8.84496978	     -0.75367592	     -2.74598859	     -5.25934690	     -8.90462295	     -6.52186777	     11.40280976	      2.26058312	     -0.43976201	      0.57392720	      0.70460472
      0.02000000	      1.50634224	      3.82120878	    177.95686760	      0.23408110	      1.02012610	      0.96829280	     -0.28625033	      3.91191757	     -0.21744790	     -8.98328961	      8.82548828	     -0.76360192	     -2.78782929	     -5.25453396	     -8.92597798	     -6.48703299	     11.40719008	      2.17291572	     -0.46369345	      0.59039268	      0.76280225
      0.03000000	      1.50305352	      3.81947150	    177.95320977	      0.23400814	      1.02011885	      0.96840702	     -0.29677135	      3.90205015	     -0.22020099	     -8.97823550	      8.82846117	     -0.76334437	     -2.80589795	     -5.24351388	     -8.94109457	     -6.46907222	     11.41461626	      2.16066373	     -0.46876082	      0.60072565	      0.77473145
      0.04000000	      1.48491855	      3.81950958	    177.93877872	      0.23396841	      1.02013512	      0.96849185	     -0.31603048	      3.89463061	     -0.20685161	     -8.98239665	      8.83217094	     -0.75890963	     -2.84000789	     -5.23453950	     -8.95994752	     -6.45233385	     11.41626465	      2.14164151	     -0.50103312	      0.60985324	      0.81176689
      0.05000000	      1.48876701	      3.81998896	    177.94011254	      0.23394252	      1.02012413	      0.96858434	     -0.31476333	      3.88953016	     -0.20713314	     -8.97951922	      8.83251123	     -0.75873182	     -2.83933959	     -5.22958468	     -8.96204572	     -6.44889763	     11.41624698	      2.14113034	     -0.50830863	      0.61934942	      0.81389080
      0.06000000	      1.48820693	      3.82587775	    177.93195438	      0.23390215	      1.02012217	      0.96864226	     -0.31570559	      3.89047520	     -0.22968048	     -8.98122869	      8.83164698	     -0.75463801	     -2.85351948	     -5.23035232	     -8.97632737	     -6.43116585	     11.41755686	      2.13606806	     -0.51887371	      0.63197742	      0.83700444
      0.07000000	      1.49287328	      3.82720880	    177.92938890	      0.23390113	      1.02011444	      0.96868186	     -0.31139812	      3.88858962	     -0.23460719	     -8.97818374	      8.83168167	     -0.75422039	     -2.85143823	     -5.22961136	     -8.97777705	     -6.42730215	     11.41774433	      2.13574832	     -0.52952572	      0.63687139	      0.84019912
      0.08000000	      1.49637822	      3.83988235	    177.91786872	      0.23388161	      1.02010806	      0.96869786	     -0.29956033	      3.89824344	     -0.29767474	     -8.99162823	      8.82653943	     -0.75023282	     -2.85709523	     -5.24056526	     -8.99147853	     -6.41733868	     11.41855885	      2.13366636	     -0.53716594	      0.65379762	      0.87690510
      0.09000000	      1.50344115	      3.85269991	    177.91200646	      0.23388685	      1.02009471	      0.96869077	     -0.28045558	      3.91063264	     -0.36178469	     -9.00920308	      8.82166798	     -0.74671081	     -2.85315946	     -5.25497745	     -9.00578432	     -6.41254938	     11.42217214	      2.13196117	     -0.54463653	      0.66619704	      0.89084464
      0.10000000	      1.52122108	      3.86506757	    177.91753676	      0.23390262	      1.02005927	      0.96869899	     -0.24700972	      3.92251630	     -0.44050047	     -9.03254658	      8.82008730	     -0.74434334	     -2.82804635	     -5.27108983	     -9.00867724	     -6.42172336	     11.43480500	      2.13048521	     -0.54038735	      0.68039436	      0.88357818
      0.11000000	      1.54056841	      3.87006266	    177.91908967	      0.23389389	      1.02001929	      0.96870346	     -0.21818370	      3.92696480	     -0.50748307	     -9.04492058	      8.82230082	     -0.74596669	     -2.80623751	     -5.27784247	     -9.00584320	     -6.42530118	     11.44342910	      2.13051979	     -0.52818456	      0.68657316	      0.88560367
      0.12000000	      1.55066033	      3.87215816	    177.91852798	      0.23386011	      1.01999216	      0.96871296	     -0.20870808	      3.92784272	     -0.54792692	     -9.04374824	      8.82643476	     -0.74767857	     -2.79875473	     -5.28019731	     -9.00658290	     -6.42392979	     11.44682133	      2.13045302	     -0.52317425	      0.68856936	      0.89593746
      0.13000000	      1.55984941	      3.87230762	    177.92712791	      0.23382159	      1.01996487	      0.96875012	     -0.18887960	      3.92563905	     -0.59871175	     -9.06594497	      8.83060613	     -0.75090127	     -2.79127793	     -5.27961252	     -9.00593153	     -6.42010784	     11.45391987	      2.13024752	     -0.51763138	      0.69188719	      0.88107970
      0.14000000	      1.56259430	      3.87168690	    177.93179579	      0.23376875	      1.01995145	      0.96879373	     -0.18846269	      3.92282186	     -0.60195207	     -9.06726283	      8.83207835	     -0.75142329	     -2.79020266	     -5.27693584	     -9.00435554	     -6.42108595	     11.45436279	      2.13030588	     -0.51718571	      0.69571487	      0.88122026
      0.15000000	      1.57277548	      3.86261324	    177.95834604	      0.23370941	      1.01992116	      0.96888014	     -0.17081828	      3.90931036	     -0.66216331	     -9.08638952	      8.85561427	     -0.75655227	     -2.77495842	     -5.26567878	     -8.97079373	     -6.42671229	     11.46128842	      2.13035067	     -0.50543843	      0.68953893	      0.85058545
      0.16000000	      1.57336269	      3.86224473	    177.96282504	      0.23362963	      1.01991419	      0.96893264	     -0.17296641	      3.90554981	     -0.66075888	     -9.09031068	      8.85551613	     -0.75657208	     -2.77747545	     -5.26276730	     -8.97067809	     -6.42815646	     11.46140921	      2.13032079	     -0.50112936	      0.69451196	      0.84977315
      0.17000000	      1.57338162	      3.86145417	    177.96691745	      0.23354549	      1.01991000	      0.96899003	     -0.17558195	      3.90076649	     -0.65917124	     -9.09504440	      8.85593063	     -0.75651782	     -2.78047567	     -5.25898867	     -8.97002950	     -6.43009240	     11.46185524	      2.13027426	     -0.49638371	      0.70006164	      0.84746551
      0.18000000	      1.57283942	      3.86025879	    177.96965340	      0.23345833	      1.01990842	      0.96904650	     -0.17897822	      3.89509421	     -0.65716802	     -9.09994597	      8.85690108	     -0.75627935	     -2.78370490	     -5.25465166	     -8.96863335	     -6.43325336	     11.46255168	      2.13017311	     -0.49140646	      0.70548917	      0.84394072
